<svg id="SvgjsSvg1001" width="288" height="288" xmlns="http://www.w3.org/2000/svg" version="1.1" xmlns:xlink="http://www.w3.org/1999/xlink" xmlns:svgjs="http://svgjs.com/svgjs"><defs id="SvgjsDefs1002"></defs><g id="SvgjsG1008" transform="matrix(1,0,0,1,0,0)"><svg xmlns="http://www.w3.org/2000/svg" width="288" height="288" fill="none" viewBox="0 0 146 146"><path fill="#ffffff" d="M88.7332 121.048C83.6132 121.048 79.0132 120.208 74.9332 118.528C70.8532 116.768 67.3732 114.368 64.4932 111.328C61.6132 108.208 59.3732 104.688 57.7732 100.768C56.2532 96.8482 55.4932 92.7282 55.4932 88.4082C55.4932 82.4882 56.8132 77.0882 59.4532 72.2082C62.1732 67.2482 66.0132 63.2882 70.9732 60.3282C75.9332 57.3682 81.8132 55.8882 88.6132 55.8882C95.4132 55.8882 101.253 57.3682 106.133 60.3282C111.013 63.2882 114.653 67.1682 117.053 71.9682L101.333 76.7682C99.9732 74.4482 98.1732 72.6882 95.9332 71.4882C93.6932 70.2082 91.2132 69.5682 88.4932 69.5682C85.4532 69.5682 82.6532 70.3682 80.0932 71.9682C77.6132 73.4882 75.6532 75.6882 74.2132 78.5682C72.7732 81.3682 72.0532 84.6482 72.0532 88.4082C72.0532 92.0882 72.7732 95.3682 74.2132 98.2482C75.7332 101.048 77.7332 103.288 80.2132 104.968C82.6932 106.568 85.4532 107.368 88.4932 107.368C90.4132 107.368 92.2132 107.048 93.8932 106.408C95.6532 105.768 97.2132 104.888 98.5732 103.768C99.9332 102.648 100.933 101.368 101.573 99.9282L117.293 104.728C115.853 107.848 113.733 110.648 110.933 113.128C108.213 115.608 104.973 117.568 101.213 119.008C97.5332 120.368 93.3732 121.048 88.7332 121.048Z" class="color000 svgShape"></path><rect width="16" height="63" x="28" y="56.848" fill="#ffffff" class="color000 svgShape"></rect><path fill="#ffffff" fill-rule="evenodd" d="M40.9771 24.2404C37.243 23.2395 33.4044 25.4553 32.4035 29.1894L30.0734 37.8826C29.0725 41.6168 31.2883 45.4553 35.0224 46.4562C38.4286 47.3692 41.9217 45.6057 43.2687 42.4548L37.542 40.9198L38.0598 38.988L43.8552 40.5414L44.3726 38.6094L38.5771 37.056L39.0949 35.1242L44.8904 36.6776L45.4087 34.7459L39.6133 33.1925L40.1311 31.2607L45.9262 32.814C46.9271 29.0798 44.7113 25.2413 40.9771 24.2404Z" clip-rule="evenodd" class="color000 svgShape"></path></svg></g></svg>